<?xml version="1.0" encoding="utf-8"?>
<!-- Generator: Adobe Illustrator 23.1.0, SVG Export Plug-In . SVG Version: 6.00 Build 0)  -->
<svg version="1.1" id="Слой_1" xmlns="http://www.w3.org/2000/svg" xmlns:xlink="http://www.w3.org/1999/xlink" x="0px" y="0px"
	 viewBox="0 0 300 100" style="enable-background:new 0 0 300 100;" xml:space="preserve">
<style type="text/css">
	.st0{fill:#0071BA;}
	.st1{clip-path:url(#SVGID_2_);fill:#0071BA;}
	.st2{clip-path:url(#SVGID_2_);fill:none;stroke:#0071BA;stroke-width:2.438;stroke-miterlimit:10;}
	.st3{clip-path:url(#SVGID_2_);fill:none;stroke:#0071BA;stroke-width:2;stroke-miterlimit:10;}
</style>
<polygon class="st0" points="99.63,62.2 99.63,24.27 93.99,24.27 93.99,18.36 114.83,18.36 114.83,24.27 109.18,24.27 109.18,62.2 
	"/>
<g>
	<defs>
		<rect id="SVGID_1_" x="-47.77" y="-76" width="395.54" height="263.69"/>
	</defs>
	<clipPath id="SVGID_2_">
		<use xlink:href="#SVGID_1_"  style="overflow:visible;"/>
	</clipPath>
	<path class="st1" d="M122.92,62.2V18.36h11.54c2.11,0,3.97,0.23,5.58,0.68c1.61,0.45,3.24,1.45,4.21,3.03
		c0.72,1.18,0.87,5.6,0.89,9.93c0.02,4.33,0,8.11-0.57,9.44c-0.77,1.79-1.34,2.58-3.1,3.38c-1.76,0.8-4.07,0.79-6.94,0.79h-2.06
		V62.2H122.92z M132.47,24.27v15.83h0.48c2.31,0.02,2.54-0.66,2.5-2.14l0.04-11.56c0-1.52-0.16-2.13-2.09-2.13H132.47z"/>
	<path class="st1" d="M199.2,61.84l-0.07-23.42l-6.32,23.42h-10.23V18.36h8.1v19.88l6.51-19.88h10.1v43.48H199.2z M207.29,61.84
		h-8.09l-0.07-23.42"/>
	<polygon class="st1" points="215.5,61.74 215.5,18.36 233.3,18.36 233.3,24.27 224.96,24.37 224.96,61.84 	"/>
	<path class="st1" d="M240.77,61.84l7.01-43.48h12.55l7.18,43.48h-9.63l-1.55-12.78h-4.22l-1.8,12.78H240.77z M255.61,44.43
		l-1.44-13.92l-1.6,13.92H255.61z"/>
	<path class="st1" d="M291.29,39.75c0.13,0.02,0.26,0.05,0.4,0.09c2.8,0.72,4.73,3.3,4.83,6.19c0.03,0.77,0.04,1.69,0.04,2.77
		c0,1.94,0.01,4.34,0.01,6.2c0,5.05-4.54,7.5-10.55,7.5c-2.96,0-5.21-0.29-6.9-1.43c-1.69-1.14-2.8-2.54-3.33-4.2
		c-0.53-1.66-0.8-4.54-0.8-8.63v-4.12h8.88v7.71c0,1.86-0.07,3.72,0.09,4.23c0.26,0.81,1.07,0.97,1.74,0.97
		c0.72,0,1.41-0.29,1.65-0.92c0.23-0.64,0.14-3.29,0.14-5.98v-2.98c0-1.65,0.04-2.8-0.28-3.57c-0.32-0.76-0.51-1.87-4.18-1.92
		l0-4.54c2.99-0.05,3.92-1.28,4.15-1.94c0.23-0.66,0.09-3.03,0.09-4.43v-2.39c0-1.51,0-2.78-0.21-3.29
		c-0.29-0.72-1.02-0.82-1.59-0.82c-0.65,0-1.22,0.42-1.46,0.93c-0.24,0.51-0.13,1.83-0.13,3.48v5.4H275v-5.53
		c0-4.11,0.82-6.9,2.45-8.34c1.64-1.45,4.77-2.07,8.34-2.03c3.67,0.04,7.1,0.75,8.41,2.01c1.61,1.55,2.37,4.75,2.37,8.31
		c0,2.41,0.01,5.88-0.39,7.02C295.47,37.47,294.23,38.69,291.29,39.75"/>
	<path class="st1" d="M86.4,34.16l-8.89-0.03v-4.18c0-2.17,0-4.38-0.04-4.95c-0.06-0.84-0.76-1.03-1.43-1.03
		c-0.76,0-1.37,0.3-1.39,1.16c-0.02,0.68,0.05,3.19,0.05,5.36V50.4c0,2.08,0.02,3.94,0.1,5.61c0.03,0.67,0.6,1.01,1.31,1.01
		c0.68,0,1.31-0.39,1.39-1.06c0.11-0.88,0.12-3.78,0.12-6.14v-4.61h8.72c0,0,0.13,9.7,0.07,10.8c-0.14,2.27-1.99,3.96-2.92,4.74
		c-1.73,1.44-4.82,1.77-7.4,1.77c-2.69,0-5.59,0.08-7.33-1.1c-1.74-1.18-2.71-2.22-3.27-4.31c-0.57-2.09-0.36-6.51-0.36-10.71V33.88
		c0-3.09,0.01-5.98,0-7.53c-0.01-2.42,0.75-5.46,4.82-7.21c1.6-0.69,3.68-0.77,5.67-0.77c4.28,0,5.82,0.27,7.57,1.54
		c1.76,1.27,2.25,2.71,2.8,4.61C86.53,26.4,86.4,30.16,86.4,34.16"/>
	<polygon class="st1" points="30.01,0.74 43.1,22.89 14.38,62.53 1.17,48.85 	"/>
	<polygon class="st1" points="45.84,27.56 56.27,45.21 18.48,88.93 6.97,77.71 	"/>
	<polygon class="st1" points="44.61,64.52 54.33,76.06 29.84,99.76 20.84,91.03 	"/>
	<line class="st1" x1="15.76" y1="59.02" x2="7.7" y2="77.96"/>
	<line class="st2" x1="15.76" y1="59.02" x2="7.7" y2="77.96"/>
	<line class="st1" x1="21.38" y1="91.1" x2="27.28" y2="76.68"/>
	<line class="st3" x1="21.38" y1="91.1" x2="27.28" y2="76.68"/>
	<line class="st1" x1="35.63" y1="43.19" x2="42.62" y2="22.79"/>
	<line class="st3" x1="35.63" y1="43.19" x2="42.62" y2="22.79"/>
	<line class="st1" x1="55.49" y1="45.04" x2="42.58" y2="69.05"/>
	<line class="st3" x1="55.49" y1="45.04" x2="42.58" y2="69.05"/>
	<path class="st1" d="M198.75,10.08c0,0-0.2,3.39-3.28,3.96c-0.43,0.08-0.88,0.08-1.31,0c-3.07-0.57-3.28-3.96-3.28-3.96h-4.43
		c0.3,4.23,3.21,5.97,5.38,6.67c0.78,0.25,1.6,0.38,2.42,0.42l0,0.02h0.47h0.19h0.47l0-0.02c0.82-0.04,1.63-0.17,2.42-0.42
		c2.17-0.7,5.09-2.44,5.38-6.67H198.75z"/>
	<path class="st1" d="M172.66,20.43c-2.46-2.1-7.33-2.36-8.94-2.36c-0.02,0-0.04,0-0.09,0c-0.05,0-0.08,0-0.09,0
		c-1.6,0-6.27,0.26-8.72,2.36c-2.36,2.02-2.2,5.77-2.2,5.77v28.3c0,0,0,3.71,3.02,5.77c0.81,0.55,1.89,1.16,2.84,1.42
		c1.67,0.47,3.39,0.73,5.11,0.79c0,0.01,0,0.01,0,0.02c0.05,0,0.1-0.01,0.16-0.01c0.05,0,0.1,0.01,0.16,0.01c0-0.01,0-0.01,0-0.02
		c1.72-0.06,3.44-0.32,5.11-0.79c0.95-0.27,2.03-0.87,2.84-1.42c3.02-2.06,3.02-5.77,3.02-5.77V26.2
		C174.86,26.2,175.02,22.45,172.66,20.43 M163.55,23.26c-0.02-0.03-0.03-0.06-0.02-0.09c0,0.01,0,0.01,0.01,0.02
		c0,0.01,0,0.03,0.01,0.02C163.54,23.22,163.54,23.24,163.55,23.26 M163.74,56.9c0,0.02,0,0.04,0,0.07
		C163.73,56.94,163.73,56.92,163.74,56.9 M163.74,56.82c-1.81-0.02-1.73-1.29-1.73-1.29v-30.7c0,0,0-1.3,1.73-1.3
		c1.73,0.01,1.73,1.3,1.73,1.3v30.7C165.47,55.53,165.55,56.8,163.74,56.82"/>
	<path class="st1" d="M120.41,78.96c-0.63,0-1.86,0.23-1.86,1.88v9.39c0,1.72,1.23,1.88,1.86,1.88s1.87,0,1.86-1.88l0-9.39
		C122.27,79.08,121.04,78.96,120.41,78.96"/>
	<path class="st1" d="M99.98,79.82v4.72c0,0,2.48,0.15,2.97-0.99c0.24-0.56,0.21-2.03-0.03-2.61
		C102.41,79.69,99.98,79.82,99.98,79.82"/>
	<path class="st1" d="M247.79,79.32c-0.34-0.28-0.72-0.41-1.15-0.41c-0.43,0-0.82,0.14-1.16,0.41c-0.34,0.28-0.6,0.77-0.79,1.48
		c-0.25,0.92-0.37,2.48-0.37,4.67s0.11,3.69,0.33,4.51c0.22,0.82,0.5,1.36,0.83,1.63c0.33,0.27,0.72,0.41,1.15,0.41
		c0.43,0,0.82-0.14,1.16-0.41c0.34-0.28,0.6-0.77,0.79-1.48c0.25-0.92,0.37-2.47,0.37-4.66s-0.11-3.69-0.33-4.51
		C248.4,80.15,248.13,79.6,247.79,79.32"/>
	<path class="st1" d="M66.33,100.01h232.5V69.78H66.33V100.01z M86.69,94.58h-4.17v-14.9h-3.37v14.9H74.9V76.3h11.79V94.58z
		 M107.26,84.89c-1.3,3.62-7.28,3.25-7.28,3.25v6.5h-4.27V76.37h5c4.26,0,5.84,1.24,6.52,2.85
		C107.62,80.14,107.62,83.88,107.26,84.89 M126.18,89.8c0,0.78-0.17,2.05-0.51,2.6c-0.34,0.56-0.78,1.02-1.32,1.38
		c-0.56,0.38-1.19,0.67-1.87,0.86c-0.69,0.19-1.38,0.29-2.08,0.29c-0.7,0-1.39-0.1-2.08-0.29c-0.69-0.19-1.3-0.48-1.84-0.86
		c-0.56-0.36-1.01-0.82-1.35-1.38c-0.34-0.56-0.51-2.06-0.51-2.84v-8.6c0-0.75,0.17-1.9,0.51-2.47c0.34-0.57,0.79-1.05,1.35-1.43
		c0.54-0.36,1.15-0.64,1.84-0.83c0.69-0.19,1.38-0.29,2.07-0.29c0.7,0,1.39,0.1,2.08,0.29c0.69,0.19,1.31,0.47,1.87,0.83
		c0.54,0.38,0.98,0.86,1.32,1.43c0.34,0.57,0.51,1.88,0.51,2.63V89.8z M144.79,79.73h-5.96l0.02,3.61h5.39v3.5l-5.39,0l-0.02,4.41
		h5.96v3.38l-10.22,0.07V76.42l10.22-0.07V79.73z M161.43,94.68l-2.29-5.99l-1.5,1.01v4.95h-4.2V76.37h4.2v7.32l3.17-7.32h4.55
		l-3.91,8.12l4.15,10.19H161.43z M183.52,79.68h-3.19v14.93l-4.26,0.03V79.69l-3.29-0.01V76.3h10.74V79.68z M206.18,89.92l-3.1-2.4
		l-3.1,2.4l1-3.71l-3.19-3.01l4.02-0.03l1.28-3.31l1.27,3.31l4.02,0.03l-3.09,2.96L206.18,89.92z M233.36,91.35v3.32h-12.53
		c0.14-1.25,0.54-2.44,1.22-3.57c0.68-1.12,2.02-2.61,4.02-4.47c1.61-1.5,2.6-2.52,2.96-3.05c0.49-0.74,0.74-1.47,0.74-2.19
		c0-0.8-0.21-1.41-0.64-1.84c-0.43-0.43-1.02-0.64-1.77-0.64c-0.75,0-1.34,0.22-1.78,0.67c-0.44,0.45-0.7,1.2-0.76,2.24l-3.56-0.36
		c0.21-1.97,0.88-3.38,2-4.23c1.12-0.86,2.52-1.28,4.2-1.28c1.84,0,3.29,0.5,4.34,1.49c1.05,0.99,1.58,2.23,1.58,3.7
		c0,0.84-0.15,1.64-0.45,2.4c-0.3,0.76-0.78,1.55-1.43,2.38c-0.43,0.55-1.21,1.34-2.34,2.38c-1.13,1.03-1.84,1.72-2.14,2.06
		c-0.3,0.34-0.54,0.67-0.73,0.99H233.36z M250.86,93.08c-1.01,1.27-2.42,1.91-4.22,1.91c-1.81,0-3.28-0.7-4.39-2.09
		c-1.11-1.39-1.67-3.88-1.67-7.46c0-3.51,0.61-6.04,1.83-7.58c1.01-1.27,2.42-1.91,4.22-1.91s3.22,0.64,4.24,1.93
		c1.21,1.53,1.82,4.06,1.82,7.59C252.7,89,252.08,91.54,250.86,93.08 M269.05,94.67h-3.57V81.2c-1.31,1.22-2.84,2.12-4.62,2.71
		v-3.24c0.93-0.31,1.95-0.88,3.04-1.74c1.09-0.85,1.84-1.85,2.25-2.98h2.9V94.67z M289.47,93.08c-1.01,1.27-2.42,1.91-4.22,1.91
		c-1.81,0-3.28-0.7-4.39-2.09s-1.67-3.88-1.67-7.46c0-3.51,0.61-6.04,1.83-7.58c1.01-1.27,2.42-1.91,4.22-1.91
		c1.81,0,3.22,0.64,4.23,1.93c1.21,1.53,1.82,4.06,1.82,7.59C291.31,89,290.69,91.54,289.47,93.08"/>
	<path class="st1" d="M286.4,79.32c-0.34-0.28-0.72-0.41-1.15-0.41c-0.43,0-0.82,0.14-1.16,0.41c-0.34,0.28-0.6,0.77-0.79,1.48
		c-0.25,0.92-0.37,2.48-0.37,4.67s0.11,3.69,0.33,4.51c0.22,0.82,0.5,1.36,0.83,1.63c0.33,0.27,0.72,0.41,1.15,0.41
		c0.43,0,0.82-0.14,1.16-0.41c0.34-0.28,0.6-0.77,0.79-1.48c0.25-0.92,0.37-2.47,0.37-4.66s-0.11-3.69-0.33-4.51
		C287.01,80.15,286.74,79.6,286.4,79.32"/>
</g>
</svg>
